<svg xmlns="http://www.w3.org/2000/svg" viewBox="-0.856445 -25 578.1 562.1">
  <path d="M 316.9 18 C 311.6 7 300.4 0 288.1 0 s -23.4 7 -28.8 18 L 195 150.3 L 51.4 171.5 c -12 1.8 -22 10.2 -25.7 21.7 s -0.7 24.2 7.9 32.7 L 137.8 329 L 113.2 474.7 c -2 12 3 24.2 12.9 31.3 s 23 8 33.8 2.3 l 128.3 -68.5 l 128.3 68.5 c 10.8 5.7 23.9 4.9 33.8 -2.3 s 14.9 -19.3 12.9 -31.3 L 438.5 329 L 542.7 225.9 c 8.6 -8.5 11.7 -21.2 7.9 -32.7 s -13.7 -19.9 -25.7 -21.7 L 381.2 150.3 L 316.9 18 z" stroke="#fff" stroke-width="25" fill="none"/>
</svg>